# xmcd
#
# Track frame offsets:
# 150
# 9342
# 19972
# 40247
# 59537
# 76602
# 90760
# 105485
# 113315
# 125407
# 136177
#
# Disc length: 2039 seconds
#
#
# Revision: 0
# Processed by: cddbd v1.5.2PL0 Copyright (c) Steve Scherf et al.
# Submitted via: FreeRIP 2.951 
#
DISCID=7107f50b
DTITLE=Bill Morris - Steel Rails Hummin
DYEAR=1900
DGENRE=Bluegrass
TTITLE0=Streamline Cannonball
TTITLE1=Stream of Wiskey
TTITLE2=R R to Heaven
TTITLE3=Wreck
TTITLE4=Railroad bill
TTITLE5=John Henery
TTITLE6=Hobo Bill
TTITLE7=252
TTITLE8=New river train
TTITLE9=97
TTITLE10=Hobo Lulaby
EXTD=
EXTT0=
EXTT1=
EXTT2=
EXTT3=
EXTT4=
EXTT5=
EXTT6=
EXTT7=
EXTT8=
EXTT9=
EXTT10=
PLAYORDER=
